<svg id="Layer_1" data-name="Layer 1" xmlns="http://www.w3.org/2000/svg" viewBox="0 0 528.04 244.92"><path d="M27.6,29.05h78.34A27,27,0,0,1,108,39.12c0,2.9-.58,4.92-1.73,6.08s-3.19,1.74-6.08,1.74H84.4q-1.22,24.14-1.22,79.55,0,97.62,1.39,121.76h21.37A27.11,27.11,0,0,1,108,258.33q0,4.34-1.73,6.08c-1.16,1.16-3.19,1.73-6.08,1.73H22a30.88,30.88,0,0,1-2.26-10.94c0-2.43.61-4.19,1.83-5.3s3.21-1.65,6-1.65H43.41q1.38-24.13,1.39-123.84-.18-53.32-1.39-77.47H22A31,31,0,0,1,19.78,36c0-2.43.61-4.19,1.83-5.3S24.82,29.05,27.6,29.05Z" transform="translate(-19.78 -21.23)"/><path d="M210.33,248.25q1.39-24.13,1.39-123.84,0-53.32-1.39-73-61.67,2.61-69.65,2.61-7.65,0-10.6-2.43t-3-9.21q0-9.72,4.86-21.19,29.53,7.82,85.64,7.82H326.19q7.63,0,10.68,2.52t3,9.11a41.68,41.68,0,0,1-7.12,23.11q-29-12.33-75.39-12.34h-5.9q-1.4,19.64-1.39,75,0,97.62,1.39,121.76h24.84a27.11,27.11,0,0,1,2.08,10.08q0,4.34-1.73,6.08c-1.16,1.16-3.19,1.73-6.08,1.73H185.49a30.85,30.85,0,0,1-2.25-10.94c0-2.43.6-4.19,1.82-5.3s3.21-1.65,6-1.65Z" transform="translate(-19.78 -21.23)"/><path d="M382.64,46.94H362.49A33.07,33.07,0,0,1,360.41,36c0-2.43.61-4.19,1.82-5.3s3.22-1.64,6-1.64H437.7q65.15,0,87.64,16t22.49,52.28q0,37.69-26.92,58.54t-89.63,20.84h-8.86q.34,53.51,1.39,71.56h26.57a27.13,27.13,0,0,1,2.09,10.08q0,4.34-1.74,6.08c-1.16,1.16-3.18,1.73-6.08,1.73H361.28A30.66,30.66,0,0,1,359,255.2c0-2.43.61-4.19,1.82-5.3s3.22-1.65,6-1.65h15.81Q384,224.12,384,124.41,384,71.09,382.64,46.94ZM436.49,154.8q38.2,0,53.5-10.94t15.28-37q0-25-14.41-38.73T443.61,54.41a103.88,103.88,0,0,0-19.8,1.73q-1.4,14.94-1.39,70.35V154.8Z" transform="translate(-19.78 -21.23)"/></svg>