<svg id="Layer_1" data-name="Layer 1" xmlns="http://www.w3.org/2000/svg" viewBox="0 0 76.62 35.54"><path d="M123.68,55H135a3.76,3.76,0,0,1,.31,1.46,1.22,1.22,0,0,1-.26.88,1.2,1.2,0,0,1-.88.25h-2.29q-.18,3.51-.18,11.55,0,14.16.2,17.66H135a3.81,3.81,0,0,1,.31,1.47,1.22,1.22,0,0,1-.26.88,1.2,1.2,0,0,1-.88.25H122.87a4.44,4.44,0,0,1-.33-1.59,1,1,0,0,1,.27-.77,1.26,1.26,0,0,1,.87-.24H126q.19-3.5.2-18c0-5.16-.08-8.9-.2-11.24h-3.1a4.44,4.44,0,0,1-.33-1.59,1,1,0,0,1,.27-.76A1.26,1.26,0,0,1,123.68,55Z" transform="translate(-122.54 -53.9)"/><path d="M150.19,86.84q.21-3.5.2-18c0-5.16-.06-8.68-.2-10.58q-8.94.38-10.11.38a2.43,2.43,0,0,1-1.53-.36,1.64,1.64,0,0,1-.43-1.33,8,8,0,0,1,.7-3.08A51.4,51.4,0,0,0,151.25,55H167a2.5,2.5,0,0,1,1.55.36,1.64,1.64,0,0,1,.44,1.32,6.05,6.05,0,0,1-1,3.36A28.14,28.14,0,0,0,157,58.29h-.86q-.19,2.85-.2,10.89,0,14.16.2,17.66h3.61a4,4,0,0,1,.3,1.47.94.94,0,0,1-1.13,1.13H146.59a4.44,4.44,0,0,1-.33-1.59,1,1,0,0,1,.26-.77,1.29,1.29,0,0,1,.87-.24Z" transform="translate(-122.54 -53.9)"/><path d="M175.19,57.63h-2.92A4.82,4.82,0,0,1,172,56a1,1,0,0,1,.26-.76,1.29,1.29,0,0,1,.87-.24h10.08q9.45,0,12.72,2.31t3.26,7.59a10.11,10.11,0,0,1-3.9,8.49q-3.91,3-13,3H181c0,5.17.1,8.64.2,10.38H185a3.81,3.81,0,0,1,.31,1.47,1.22,1.22,0,0,1-.26.88,1.2,1.2,0,0,1-.88.25h-12.1a4.63,4.63,0,0,1-.32-1.59,1,1,0,0,1,.26-.77,1.29,1.29,0,0,1,.87-.24h2.29q.21-3.5.21-18C175.4,63.71,175.33,60,175.19,57.63ZM183,73.28q5.53,0,7.76-1.58T193,66.33a7.39,7.39,0,0,0-2.09-5.62c-1.4-1.33-3.68-2-6.86-2a14.75,14.75,0,0,0-2.87.25c-.14,1.44-.2,4.85-.2,10.21v4.1Z" transform="translate(-122.54 -53.9)"/></svg>