<svg id="Layer_1" data-name="Layer 1" xmlns="http://www.w3.org/2000/svg" viewBox="0 0 264.02 122.46"><path d="M126.45,57.81h39.17a13.65,13.65,0,0,1,1,5,4.23,4.23,0,0,1-.87,3,4.23,4.23,0,0,1-3,.87h-7.9q-.61,12.06-.61,39.77,0,48.81.7,60.88h10.68a13.65,13.65,0,0,1,1,5,3.26,3.26,0,0,1-3.91,3.91H123.67a15.46,15.46,0,0,1-1.13-5.47,3.44,3.44,0,0,1,.91-2.65,4.43,4.43,0,0,1,3-.83h7.9q.71-12.06.7-61.92-.09-26.65-.7-38.73H123.67a15.51,15.51,0,0,1-1.13-5.48,3.47,3.47,0,0,1,.91-2.65A4.48,4.48,0,0,1,126.45,57.81Z" transform="translate(-122.54 -53.9)"/><path d="M217.82,167.41q.69-12.06.69-61.92,0-26.65-.69-36.48Q187,70.32,183,70.32c-2.55,0-4.31-.41-5.3-1.22s-1.47-2.34-1.47-4.6a27.36,27.36,0,0,1,2.43-10.6q14.76,3.91,42.81,3.91h54.28q3.83,0,5.35,1.26t1.52,4.56a20.88,20.88,0,0,1-3.56,11.55Q264.54,69,241.35,69H238.4q-.69,9.83-.7,37.52,0,48.81.7,60.88h12.42a13.65,13.65,0,0,1,1,5,3.26,3.26,0,0,1-3.91,3.91H205.4a15.24,15.24,0,0,1-1.13-5.47,3.4,3.4,0,0,1,.91-2.65,4.43,4.43,0,0,1,3-.83Z" transform="translate(-122.54 -53.9)"/><path d="M304,66.76H293.9a16.46,16.46,0,0,1-1-5.48,3.43,3.43,0,0,1,.92-2.65,4.44,4.44,0,0,1,3-.82H331.5q32.56,0,43.82,8t11.24,26.14q0,18.86-13.46,29.27t-44.81,10.42h-4.43q.17,26.76.69,35.78h13.29a13.45,13.45,0,0,1,1,5,3.25,3.25,0,0,1-3.9,3.91H293.29a15.24,15.24,0,0,1-1.13-5.47,3.4,3.4,0,0,1,.91-2.65,4.43,4.43,0,0,1,3-.83H304q.69-12.06.7-61.92Q304.67,78.84,304,66.76Zm26.92,53.93q19.11,0,26.75-5.47t7.65-18.5q0-12.51-7.21-19.37t-23.62-6.86a51.7,51.7,0,0,0-9.91.87q-.69,7.47-.69,35.17v14.16Z" transform="translate(-122.54 -53.9)"/></svg>